<svg xmlns="http://www.w3.org/2000/svg" viewBox="0 0 46.98 46.98" id="delete">
  <path fill="#231f20" d="M946.27 474.16a.8.8 0 00.81.8h20.84a.8.8 0 00.8-.8V454.09H946.27zM962.54 460a1 1 0 012.05 0v9.13a1 1 0 01-2.05 0zm-6.07-2.09a1 1 0 012 0v13.31a1 1 0 01-2 0zM950.39 460a1 1 0 012.05 0v9.13a1 1 0 01-2.05 0zM971.69 449.4H943.3a.34.34 0 00-.34.35v1.94a.35.35 0 00.34.35h28.39a.35.35 0 00.35-.35v-1.94A.35.35 0 00971.69 449.4zM960.55 446.62a.73.73 0 00-.73-.73h-4.64a.74.74 0 00-.74.73v.73h6.11z" transform="translate(-934.2 -436.94)"></path>
  <path fill="#231f20" d="M957.69,436.94h0a23.49,23.49,0,0,0-23.49,23.49h0a23.49,23.49,0,0,0,23.49,23.49h0a23.49,23.49,0,0,0,23.49-23.49h0A23.48,23.48,0,0,0,957.69,436.94Zm16.39,14.75a2.39,2.39,0,0,1-2.39,2.4h-.92v20.07a2.85,2.85,0,0,1-2.85,2.85H947.08a2.85,2.85,0,0,1-2.86-2.85V454.09h-.92a2.39,2.39,0,0,1-2.39-2.4v-1.94a2.39,2.39,0,0,1,2.39-2.4h9.09v-.73a2.78,2.78,0,0,1,2.79-2.78h4.64a2.78,2.78,0,0,1,2.78,2.78v.73h9.09a2.39,2.39,0,0,1,2.39,2.4Z" transform="translate(-934.2 -436.94)"></path>
</svg>
